<?xml version="1.0" encoding="utf-8"?>
<!-- Generator: Adobe Illustrator 16.0.0, SVG Export Plug-In . SVG Version: 6.00 Build 0)  -->
<!DOCTYPE svg PUBLIC "-//W3C//DTD SVG 1.1//EN" "http://www.w3.org/Graphics/SVG/1.1/DTD/svg11.dtd">
<svg version="1.1" id="Layer_1" xmlns="http://www.w3.org/2000/svg" xmlns:xlink="http://www.w3.org/1999/xlink" x="0px" y="0px"
	 width="50px" height="50px" viewBox="25 25 50 50" enable-background="new 25 25 50 50" xml:space="preserve">
<g>
	<g>
		<g>
			<circle fill="#2DBEC3" cx="29.548" cy="36.819" r="4.163"/>
			<path fill="#2DBEC3" d="M55.207,29.619h-12.9c-1.153,0-2.138,1.003-2.138,2.24l-0.046,26.103l0,0c0,1.92-1.584,3.542-3.505,3.542
				c-1.942,0-3.526-1.585-3.526-3.542l0.019-9.892c0-1.969-1.473-3.544-3.441-3.544c-1.969,0-3.441,1.369-3.441,3.544
				c0,0,0,4.041,0,9.872s4.716,10.594,10.575,10.594c5.915,0,10.575-4.763,10.575-10.594l0,0l0,0v-20.84h7.82
				c6.815,0,12.281,5.381,12.281,12.216c0,6.815-5.146,12.197-12.413,12.197l0,0c-1.921,0-3.479,1.641-3.479,3.608
				c0,1.97,1.642,3.592,3.61,3.592c0.019,0,0.019,0,0.019,0c10.697,0,19.396-8.841,19.396-19.547
				C74.625,38.441,65.925,29.619,55.207,29.619z"/>
		</g>
	</g>
</g>
</svg>
