<?xml version="1.0" encoding="utf-8"?>
<!-- Generator: Adobe Illustrator 18.1.1, SVG Export Plug-In . SVG Version: 6.00 Build 0)  -->
<svg version="1.1" id="Layer_1" xmlns="http://www.w3.org/2000/svg" xmlns:xlink="http://www.w3.org/1999/xlink" x="0px" y="0px"
	 viewBox="217.3 72.4 525.1 416.9" enable-background="new 217.3 72.4 525.1 416.9" xml:space="preserve">
<g>
	<g>
		<g>
			<circle fill="#2DBEC3" cx="261.7" cy="149.2" r="44.4"/>
			<path fill="#2DBEC3" d="M535.4,72.4H397.8c-12.3,0-22.8,10.7-22.8,23.9l-0.5,278.4l0,0c0,20.5-16.9,37.8-37.4,37.8
				c-20.7,0-37.6-16.9-37.6-37.8l0.2-105.5c0-21-15.7-37.8-36.7-37.8s-36.7,14.6-36.7,37.8c0,0,0,43.1,0,105.3s50.3,113,112.8,113
				c63.1,0,112.8-50.8,112.8-113l0,0l0,0V152.2h83.4c72.7,0,131,57.4,131,130.3c0,72.7-54.9,130.1-132.4,130.1l0,0
				c-20.5,0-37.1,17.5-37.1,38.5s17.5,38.3,38.5,38.3c0.2,0,0.2,0,0.2,0c114.1,0,206.9-94.3,206.9-208.5
				C742.5,166.5,649.7,72.4,535.4,72.4z"/>
		</g>
	</g>
</g>
</svg>
