<?xml version="1.0" encoding="utf-8"?>
<!-- Generator: Adobe Illustrator 18.1.1, SVG Export Plug-In . SVG Version: 6.00 Build 0)  -->
<svg version="1.1" id="Layer_1" xmlns="http://www.w3.org/2000/svg" xmlns:xlink="http://www.w3.org/1999/xlink" x="0px" y="0px"
	 viewBox="0 0 1086.6 183" enable-background="new 0 0 1086.6 183" xml:space="preserve">
<g>
	<g>
		<g>
			<g>
				<path fill="#2DBEC3" d="M19.2,53.6c10.6,0,19.2-8.6,19.2-19.2c0-10.6-8.6-19.2-19.2-19.2C8.6,15.1,0,23.8,0,34.4
					C0,45,8.6,53.6,19.2,53.6z"/>
				<path fill="#2DBEC3" d="M137.8,0H78.1c-5.3,0-10.8,5.2-10.8,10.9l-1,121.3c0,0,0,0,0,0c0,8.9-6.5,16.4-15.4,16.4
					c-9,0-15.9-7.3-15.9-16.4l0.3-45.7c0-9.1-6.5-16.4-15.5-16.4c-9.1,0-15.5,6.3-15.5,16.4c0,0,0,18.7,0,45.7c0,27,21.4,49,48.5,49
					c27.4,0,48.5-22,48.5-49c0,0,0,0,0,0l0,0V35h36.5c31.5,0,57.3,25.3,57.3,56.8c0,31.5-23.8,56.8-56.8,56.8v0
					c-12,0-16.7,8.2-16.7,17.2c0,9,7.1,17.2,16.1,17.2c0.1,0,0.1,0,0.1,0c49.5,0,89.7-42,89.7-91.5C227.7,41.9,187.5,0,137.8,0z"/>
			</g>
		</g>
	</g>
	<g>
		<g>
			<path fill="#59595C" d="M302.4,33.9c3.9,0,7,3,7,6.8c0,4-3.1,7-7,7c-3.7,0-7-3-7-7C295.5,36.9,298.7,33.9,302.4,33.9z
				 M306.7,134.7c0,2.5-1.8,4.6-4.3,4.6c-2.5,0-4.3-2.1-4.3-4.6V68c0-2.4,1.8-4.5,4.3-4.5c2.5,0,4.3,2.1,4.3,4.5V134.7z"/>
			<path fill="#59595C" d="M398.2,134.7c0,2.5-1.8,4.6-4.3,4.6c-2.5,0-4.3-2.1-4.3-4.6v-9.9c-3.6,5.8-12.9,14.5-28.6,14.5
				c-20.8,0-36.7-16.8-36.7-38c0-21.2,16.3-37.7,36.7-37.7c15.7,0,25.2,8.6,28.6,14.4V31.7c0-2.4,1.8-4.5,4.3-4.5
				c2.5,0,4.3,2.1,4.3,4.5V134.7z M389.5,101.3c0-18.1-12.3-30.6-28.3-30.6c-16,0-28.3,13.9-28.3,30.6c0,16.6,11.9,31,28.3,31
				C377.7,132.3,389.5,119.4,389.5,101.3z"/>
			<path fill="#59595C" d="M422.2,105.1c1.3,15,13.1,27,28.5,27c11.3,0,17.4-3.4,22.3-6.1c0.6-0.3,1.3-0.7,2.4-0.7
				c1.9,0,3.6,1.6,3.6,3.6c0,1.8-1.2,2.8-1.9,3.3c-3.3,2.1-11.6,7.1-26.3,7.1c-22,0-37.2-16.8-37.2-38c0-21.2,16.5-37.7,37.4-37.7
				c20.8,0,36.1,17.1,36.1,34.3c0,3.4-2.5,7.3-7.1,7.3H422.2z M422.2,98H479c-1.2-15.1-12.3-27.3-28.2-27.3
				C435.2,70.7,423.3,82.9,422.2,98z"/>
			<path fill="#59595C" d="M562.2,100.5c0-18.4-13.1-29.7-27.5-29.7c-14.4,0-27.3,11.3-27.3,29.7v34.1c0,2.5-1.9,4.6-4.3,4.6
				c-2.5,0-4.3-2.1-4.3-4.6v-33.2c0-22.6,15.9-37.8,35.9-37.8c20,0,36.1,15.3,36.1,37.8v33.2c0,2.5-1.9,4.6-4.5,4.6
				c-2.4,0-4.2-2.1-4.2-4.6V100.5z"/>
			<path fill="#59595C" d="M616.8,138.5h-7.3c-9.6,0-16.9-7.7-16.9-16.9v-50H584c-2.1,0-3.6-1.6-3.6-3.7c0-1.8,1.5-3.6,3.6-3.6h8.6
				V49c0-2.5,1.9-4.5,4.3-4.5c2.4,0,4.3,1.9,4.3,4.5v15.3h17.5c1.9,0,3.7,1.5,3.7,3.6c0,2.1-1.8,3.7-3.7,3.7h-17.5v50
				c0,5.8,5.3,9.6,10.1,9.6h5.5c2.1,0,3.7,1.6,3.7,3.7C620.5,137,618.9,138.5,616.8,138.5z"/>
			<path fill="#59595C" d="M641.9,33.9c3.9,0,7,3,7,6.8c0,4-3.1,7-7,7c-3.7,0-7-3-7-7C634.9,36.9,638.2,33.9,641.9,33.9z
				 M646.2,134.7c0,2.5-1.8,4.6-4.3,4.6c-2.5,0-4.3-2.1-4.3-4.6V68c0-2.4,1.8-4.5,4.3-4.5c2.5,0,4.3,2.1,4.3,4.5V134.7z"/>
			<path fill="#59595C" d="M696.3,138.5H689c-9.6,0-16.9-7.7-16.9-16.9v-50h-8.6c-2.1,0-3.6-1.6-3.6-3.7c0-1.8,1.5-3.6,3.6-3.6h8.6
				V49c0-2.5,1.9-4.5,4.3-4.5c2.4,0,4.3,1.9,4.3,4.5v15.3h17.5c1.9,0,3.7,1.5,3.7,3.6c0,2.1-1.8,3.7-3.7,3.7h-17.5v50
				c0,5.8,5.3,9.6,10.1,9.6h5.5c2.1,0,3.7,1.6,3.7,3.7C700,137,698.3,138.5,696.3,138.5z"/>
			<path fill="#59595C" d="M741.1,169c-0.7,1.8-2.4,3-4.3,3c-2.4,0-3.9-2.2-3.9-4.3c0-0.9,0.1-1.3,0.3-1.9l11.7-29.8
				c-5.5,0-7.1-2.4-7.9-4.3l-26.3-62c-0.1-0.4-0.3-1-0.3-1.6c0-2.5,1.6-4.3,4.6-4.3c1.5,0,3,1.2,3.9,3.3l27.5,65.1l24.8-65.4
				c0.7-1.8,2.1-3,3.9-3c2.5,0,4.5,1.5,4.5,4.2c0,0.7-0.3,1.6-0.4,2.1L741.1,169z"/>
			<path fill="#2DBEC3" d="M816.3,101.3c0,17.1,13.1,30.9,30,30.9c7.4,0,13.4-3.7,16-5.5c0.7-0.4,1.8-1,2.8-1c2.1,0,3.9,1.8,3.9,3.9
				c0,1.5-1.2,3-2.4,3.7c-3.4,2.4-10.8,6.1-20.3,6.1c-21.5,0-38.6-15.9-38.6-38c0-21.8,17.1-37.7,38.6-37.7c9.4,0,15.3,3.1,18.4,4.9
				c1.3,0.7,3,2.1,3,4c0,2.2-1.8,3.9-3.9,3.9c-1,0-1.9-0.4-2.8-1c-4-2.5-9.5-4.6-14.7-4.6C829.4,70.7,816.3,84.2,816.3,101.3z"/>
			<path fill="#2DBEC3" d="M912.7,139.3c-21.7,0-38.1-16.8-38.1-38c0-21.2,16.9-37.7,38.1-37.7c21.2,0,38.3,16.6,38.3,37.7
				C951,122.1,934.1,139.3,912.7,139.3z M912.7,70.7c-16.8,0-29.5,13.9-29.5,30.6c0,16.6,12.3,31,29.5,31c17.2,0,29.7-14.4,29.7-31
				C942.4,84.7,929.8,70.7,912.7,70.7z"/>
			<path fill="#2DBEC3" d="M1029.9,134.7c0,2.5-1.9,4.6-4.3,4.6c-2.4,0-4.4-2.1-4.4-4.6V95.5c0-13.4-10.1-24.6-24-24.6
				c-14.1,0-23.9,11.3-23.9,24.6v39.2c0,2.5-1.9,4.6-4.3,4.6c-2.5,0-4.5-2.1-4.5-4.6V96.8c0-17.5,13.2-33.2,32.8-33.2
				c9.8,0,21.8,4.7,28.2,16.6c6.5-11.9,18.5-16.6,28.3-16.6c19.6,0,32.8,15.7,32.8,33.2v37.8c0,2.5-1.9,4.6-4.5,4.6
				c-2.4,0-4.3-2.1-4.3-4.6V95.5c0-13.4-9.8-24.6-23.9-24.6c-13.9,0-24,11.3-24,24.6V134.7z"/>
			<path fill="#2DBEC3" d="M787.3,122.7c4.6,0,8.3,3.7,8.3,8.3c0,4.6-3.7,8.3-8.3,8.3c-4.6,0-8.3-3.7-8.3-8.3
				C779,126.4,782.7,122.7,787.3,122.7z"/>
		</g>
	</g>
</g>
</svg>
